<mxfile host="app.diagrams.net" modified="2020-11-29T14:40:29.413Z" agent="5.0 (Macintosh; Intel Mac OS X 10_15_7) AppleWebKit/605.1.15 (KHTML, like Gecko) Version/14.0.1 Safari/605.1.15" etag="FPpvkzgI-iVk2p-wvgEK" version="13.9.9" type="github">
  <diagram id="IX_8XOX5TVeQXVf6N4OR" name="第 1 页">
    <mxGraphModel dx="830" dy="745" grid="1" gridSize="10" guides="1" tooltips="1" connect="1" arrows="1" fold="1" page="1" pageScale="1" pageWidth="827" pageHeight="1169" math="0" shadow="0">
      <root>
        <mxCell id="0" />
        <mxCell id="1" parent="0" />
        <mxCell id="gGzRQ1JCuKKVo6XNu5MD-2" value="0" style="rounded=0;whiteSpace=wrap;html=1;fontSize=16;fillColor=#f8cecc;strokeColor=none;" vertex="1" parent="1">
          <mxGeometry x="285" y="405" width="90" height="60" as="geometry" />
        </mxCell>
        <mxCell id="gGzRQ1JCuKKVo6XNu5MD-3" value="10000010" style="rounded=0;whiteSpace=wrap;html=1;fontSize=16;fillColor=#cce5ff;strokeColor=none;" vertex="1" parent="1">
          <mxGeometry x="375" y="405" width="150" height="60" as="geometry" />
        </mxCell>
        <mxCell id="gGzRQ1JCuKKVo6XNu5MD-4" value="符号位&lt;br&gt;（0 - 正数）" style="text;html=1;align=center;verticalAlign=middle;resizable=0;points=[];autosize=1;fontSize=16;" vertex="1" parent="1">
          <mxGeometry x="281.22" y="470" width="100" height="40" as="geometry" />
        </mxCell>
        <mxCell id="gGzRQ1JCuKKVo6XNu5MD-6" value="01010100000000000000000" style="rounded=0;whiteSpace=wrap;html=1;fontSize=16;fillColor=#cdeb8b;strokeColor=none;" vertex="1" parent="1">
          <mxGeometry x="525" y="405" width="250" height="60" as="geometry" />
        </mxCell>
        <mxCell id="gGzRQ1JCuKKVo6XNu5MD-7" value="8 位指数&lt;br&gt;（移动位数 + 127）" style="text;html=1;align=center;verticalAlign=middle;resizable=0;points=[];autosize=1;fontSize=16;" vertex="1" parent="1">
          <mxGeometry x="375" y="470" width="160" height="40" as="geometry" />
        </mxCell>
        <mxCell id="gGzRQ1JCuKKVo6XNu5MD-9" value="23 位尾数&lt;br&gt;（小数点后面的数字）" style="text;html=1;align=center;verticalAlign=middle;resizable=0;points=[];autosize=1;fontSize=16;" vertex="1" parent="1">
          <mxGeometry x="549.39" y="470" width="180" height="40" as="geometry" />
        </mxCell>
        <mxCell id="gGzRQ1JCuKKVo6XNu5MD-11" value="10.625 的&lt;br&gt;二进制" style="text;html=1;align=center;verticalAlign=middle;resizable=0;points=[];autosize=1;fontSize=16;" vertex="1" parent="1">
          <mxGeometry x="50" y="80" width="80" height="40" as="geometry" />
        </mxCell>
        <mxCell id="gGzRQ1JCuKKVo6XNu5MD-12" value="1" style="rounded=0;whiteSpace=wrap;html=1;fontSize=16;fillColor=#ffe6cc;strokeColor=#d79b00;" vertex="1" parent="1">
          <mxGeometry x="140" y="80" width="61.22448979591836" height="40" as="geometry" />
        </mxCell>
        <mxCell id="gGzRQ1JCuKKVo6XNu5MD-13" value="0" style="rounded=0;whiteSpace=wrap;html=1;fontSize=16;fillColor=#ffe6cc;strokeColor=#d79b00;" vertex="1" parent="1">
          <mxGeometry x="201.22448979591837" y="80" width="61.22448979591836" height="40" as="geometry" />
        </mxCell>
        <mxCell id="gGzRQ1JCuKKVo6XNu5MD-14" value="1" style="rounded=0;whiteSpace=wrap;html=1;fontSize=16;fillColor=#ffe6cc;strokeColor=#d79b00;" vertex="1" parent="1">
          <mxGeometry x="262.44897959183675" y="80" width="61.22448979591836" height="40" as="geometry" />
        </mxCell>
        <mxCell id="gGzRQ1JCuKKVo6XNu5MD-15" value="0" style="rounded=0;whiteSpace=wrap;html=1;fontSize=16;fillColor=#ffe6cc;strokeColor=#d79b00;" vertex="1" parent="1">
          <mxGeometry x="323.6734693877551" y="80" width="61.22448979591836" height="40" as="geometry" />
        </mxCell>
        <mxCell id="gGzRQ1JCuKKVo6XNu5MD-16" value="1" style="rounded=0;whiteSpace=wrap;html=1;fontSize=16;fillColor=#ffe6cc;strokeColor=#d79b00;" vertex="1" parent="1">
          <mxGeometry x="438.7755102040816" y="80" width="61.22448979591836" height="40" as="geometry" />
        </mxCell>
        <mxCell id="gGzRQ1JCuKKVo6XNu5MD-17" value="&lt;b&gt;.&lt;/b&gt;" style="text;html=1;align=center;verticalAlign=middle;resizable=0;points=[];autosize=1;fontSize=16;fillColor=#f8cecc;strokeColor=#b85450;" vertex="1" parent="1">
          <mxGeometry x="397.14285714285705" y="100" width="20" height="20" as="geometry" />
        </mxCell>
        <mxCell id="gGzRQ1JCuKKVo6XNu5MD-18" value="0" style="rounded=0;whiteSpace=wrap;html=1;fontSize=16;fillColor=#ffe6cc;strokeColor=#d79b00;" vertex="1" parent="1">
          <mxGeometry x="499.9955102040816" y="80" width="61.22448979591836" height="40" as="geometry" />
        </mxCell>
        <mxCell id="gGzRQ1JCuKKVo6XNu5MD-19" value="1" style="rounded=0;whiteSpace=wrap;html=1;fontSize=16;fillColor=#ffe6cc;strokeColor=#d79b00;" vertex="1" parent="1">
          <mxGeometry x="561.2155102040816" y="80" width="61.22448979591836" height="40" as="geometry" />
        </mxCell>
        <mxCell id="gGzRQ1JCuKKVo6XNu5MD-20" value="" style="shape=flexArrow;endArrow=classic;html=1;fontSize=16;" edge="1" parent="1">
          <mxGeometry width="50" height="50" relative="1" as="geometry">
            <mxPoint x="353.79" y="140" as="sourcePoint" />
            <mxPoint x="354" y="210" as="targetPoint" />
          </mxGeometry>
        </mxCell>
        <mxCell id="gGzRQ1JCuKKVo6XNu5MD-21" value="整体数字右移 3 位，&lt;br&gt;使得小数点在&lt;br&gt;第一个有效数字后面" style="text;html=1;align=center;verticalAlign=middle;resizable=0;points=[];autosize=1;fontSize=16;fillColor=#ffff88;" vertex="1" parent="1">
          <mxGeometry x="389.39" y="140" width="160" height="60" as="geometry" />
        </mxCell>
        <mxCell id="gGzRQ1JCuKKVo6XNu5MD-23" value="1" style="rounded=0;whiteSpace=wrap;html=1;fontSize=16;fillColor=#ffe6cc;strokeColor=#d79b00;" vertex="1" parent="1">
          <mxGeometry x="320" y="230" width="61.22448979591836" height="40" as="geometry" />
        </mxCell>
        <mxCell id="gGzRQ1JCuKKVo6XNu5MD-24" value="0" style="rounded=0;whiteSpace=wrap;html=1;fontSize=16;fillColor=#ffe6cc;strokeColor=#d79b00;" vertex="1" parent="1">
          <mxGeometry x="438.7744897959184" y="230" width="61.22448979591836" height="40" as="geometry" />
        </mxCell>
        <mxCell id="gGzRQ1JCuKKVo6XNu5MD-25" value="1" style="rounded=0;whiteSpace=wrap;html=1;fontSize=16;fillColor=#ffe6cc;strokeColor=#d79b00;" vertex="1" parent="1">
          <mxGeometry x="499.9989795918367" y="230" width="61.22448979591836" height="40" as="geometry" />
        </mxCell>
        <mxCell id="gGzRQ1JCuKKVo6XNu5MD-26" value="0" style="rounded=0;whiteSpace=wrap;html=1;fontSize=16;fillColor=#ffe6cc;strokeColor=#d79b00;" vertex="1" parent="1">
          <mxGeometry x="561.2234693877551" y="230" width="61.22448979591836" height="40" as="geometry" />
        </mxCell>
        <mxCell id="gGzRQ1JCuKKVo6XNu5MD-27" value="1" style="rounded=0;whiteSpace=wrap;html=1;fontSize=16;fillColor=#ffe6cc;strokeColor=#d79b00;" vertex="1" parent="1">
          <mxGeometry x="622.4455102040816" y="230" width="61.22448979591836" height="40" as="geometry" />
        </mxCell>
        <mxCell id="gGzRQ1JCuKKVo6XNu5MD-28" value="&lt;b&gt;.&lt;/b&gt;" style="text;html=1;align=center;verticalAlign=middle;resizable=0;points=[];autosize=1;fontSize=16;fillColor=#f8cecc;strokeColor=#b85450;" vertex="1" parent="1">
          <mxGeometry x="397.14285714285705" y="250" width="20" height="20" as="geometry" />
        </mxCell>
        <mxCell id="gGzRQ1JCuKKVo6XNu5MD-29" value="0" style="rounded=0;whiteSpace=wrap;html=1;fontSize=16;fillColor=#ffe6cc;strokeColor=#d79b00;" vertex="1" parent="1">
          <mxGeometry x="683.6655102040816" y="230" width="61.22448979591836" height="40" as="geometry" />
        </mxCell>
        <mxCell id="gGzRQ1JCuKKVo6XNu5MD-30" value="1" style="rounded=0;whiteSpace=wrap;html=1;fontSize=16;fillColor=#ffe6cc;strokeColor=#d79b00;" vertex="1" parent="1">
          <mxGeometry x="744.8855102040816" y="230" width="61.22448979591836" height="40" as="geometry" />
        </mxCell>
        <mxCell id="gGzRQ1JCuKKVo6XNu5MD-33" value="10.625 的&lt;br&gt;float 存储格式" style="text;html=1;align=center;verticalAlign=middle;resizable=0;points=[];autosize=1;fontSize=16;" vertex="1" parent="1">
          <mxGeometry x="170" y="415" width="110" height="40" as="geometry" />
        </mxCell>
        <mxCell id="gGzRQ1JCuKKVo6XNu5MD-36" value="" style="endArrow=none;dashed=1;html=1;dashPattern=1 3;strokeWidth=2;fontSize=16;entryX=0;entryY=1;entryDx=0;entryDy=0;exitX=0;exitY=0;exitDx=0;exitDy=0;" edge="1" parent="1" source="gGzRQ1JCuKKVo6XNu5MD-6" target="gGzRQ1JCuKKVo6XNu5MD-24">
          <mxGeometry width="50" height="50" relative="1" as="geometry">
            <mxPoint x="120" y="280" as="sourcePoint" />
            <mxPoint x="170" y="230" as="targetPoint" />
          </mxGeometry>
        </mxCell>
        <mxCell id="gGzRQ1JCuKKVo6XNu5MD-37" value="" style="endArrow=none;dashed=1;html=1;dashPattern=1 3;strokeWidth=2;fontSize=16;entryX=1;entryY=1;entryDx=0;entryDy=0;exitX=1;exitY=0;exitDx=0;exitDy=0;" edge="1" parent="1" source="gGzRQ1JCuKKVo6XNu5MD-6" target="gGzRQ1JCuKKVo6XNu5MD-30">
          <mxGeometry width="50" height="50" relative="1" as="geometry">
            <mxPoint x="250" y="370" as="sourcePoint" />
            <mxPoint x="300" y="320" as="targetPoint" />
          </mxGeometry>
        </mxCell>
      </root>
    </mxGraphModel>
  </diagram>
</mxfile>
